<svg width="50" height="90" viewBox="0 0 50 60" fill="none" xmlns="http://www.w3.org/2000/svg">
<path d="M23.1963 9.99883L23.4211 10.3885L21.7193 13.3361L18.1469 19.5235L11.959 15.9511L15.5314 9.76367L19.1039 3.57568L19.2635 3.29883L22.8234 9.35215L23.1963 9.99883Z" fill="#94A580"/>
<path d="M37.2816 8.9542L37.2745 9.01074L36.234 21.1219L25.1705 15.9476L27.2304 14.7655L24.1796 9.47803L23.8044 8.82666L21.9074 5.59893L18.6089 0H29.3609L29.729 0.637109L30.8615 2.59785L35.2218 10.1434L37.2392 8.97529L37.2816 8.9542Z" fill="#7FA661"/>
<path d="M39.0469 32.6624L38.5971 32.6623L36.8953 29.7147L33.323 23.5272L39.5108 19.9544L43.0831 26.142L46.6557 32.3298L46.8158 32.6065L39.7934 32.6628L39.0469 32.6624Z" fill="#94A580"/>
<path d="M32.9056 43.0042L43.8872 43.0038L44.6234 43.0043L50 33.6916L39.7589 33.7738L39.0071 33.7733L32.905 33.7732L32.9053 31.3965L22.8962 38.3888L32.9061 45.3814L32.9056 43.0042Z" fill="#7FA661"/>
<path d="M11.7462 35.6632L11.9712 35.2737L15.3748 35.2736L22.5194 35.2738L22.5196 42.4189L15.3749 42.4188L8.22979 42.4189L7.91016 42.4192L11.3726 36.3095L11.7462 35.6632Z" fill="#94A580"/>
<path d="M15.9122 30.9749L13.8523 29.7857L10.8016 35.0732L10.4265 35.7244L5.81133 43.8787L5.37959 44.6361L3.75156 41.819L2.37129 39.4337L0 35.3211L0.368066 34.684L5.86094 25.1707L3.80107 23.9887L14.0576 19.1895L14.8646 18.8144L15.9122 30.9749Z" fill="#7FA661"/>
</svg>
