<svg width="50" height="50" viewBox="0 0 50 50" fill="none" xmlns="http://www.w3.org/2000/svg">
<path d="M25 41.2414L15.625 27.1789C14.4531 25 12.5 21.8992 12.5 18.75C12.5 11.8469 18.0969 6.25 25 6.25C31.9031 6.25 37.5 11.8469 37.5 18.75C37.5 21.8992 35.8945 25 34.375 27.1789L25 41.2414Z" fill="#FF300E"/>
<path d="M25 0C14.6453 0 6.25 8.39531 6.25 18.75C6.25 22.8273 7.58672 26.5688 9.80859 29.6328C9.84844 29.7063 9.85469 29.7883 9.9 29.8586L22.4 48.6086C22.9797 49.4781 23.9562 50 25 50C26.0438 50 27.0203 49.4781 27.6 48.6086L40.1 29.8586C40.1461 29.7883 40.1516 29.7063 40.1914 29.6328C42.4133 26.5688 43.75 22.8273 43.75 18.75C43.75 8.39531 35.3547 0 25 0ZM34.375 27.1789L25 41.2414L15.625 27.1789C14.4531 25 12.5 21.8992 12.5 18.75C12.5 11.8469 18.0969 6.25 25 6.25C31.9031 6.25 37.5 11.8469 37.5 18.75C37.5 21.8992 35.8945 25 34.375 27.1789Z" fill="black"/>
<path d="M25 25C28.4518 25 31.25 22.2018 31.25 18.75C31.25 15.2982 28.4518 12.5 25 12.5C21.5482 12.5 18.75 15.2982 18.75 18.75C18.75 22.2018 21.5482 25 25 25Z" fill="black"/>
</svg>
