<svg width="35" height="35" viewBox="0 0 35 35" fill="none" xmlns="http://www.w3.org/2000/svg">
<path d="M17.5 28.869L10.9375 19.0252C10.1172 17.5 8.75 15.3295 8.75 13.125C8.75 8.29281 12.6678 4.375 17.5 4.375C22.3322 4.375 26.25 8.29281 26.25 13.125C26.25 15.3295 25.1262 17.5 24.0625 19.0252L17.5 28.869Z" fill="#F76D57"/>
<path d="M17.5 0C10.2517 0 4.375 5.87672 4.375 13.125C4.375 15.9791 5.3107 18.5981 6.86602 20.743C6.89391 20.7944 6.89828 20.8518 6.93 20.901L15.68 34.026C16.0858 34.6347 16.7694 35 17.5 35C18.2306 35 18.9142 34.6347 19.32 34.026L28.07 20.901C28.1023 20.8518 28.1061 20.7944 28.134 20.743C29.6893 18.5981 30.625 15.9791 30.625 13.125C30.625 5.87672 24.7483 0 17.5 0ZM24.0625 19.0252L17.5 28.869L10.9375 19.0252C10.1172 17.5 8.75 15.3295 8.75 13.125C8.75 8.29281 12.6678 4.375 17.5 4.375C22.3322 4.375 26.25 8.29281 26.25 13.125C26.25 15.3295 25.1262 17.5 24.0625 19.0252Z" fill="#394240"/>
<path d="M17.5 17.5C19.9162 17.5 21.875 15.5412 21.875 13.125C21.875 10.7088 19.9162 8.75 17.5 8.75C15.0838 8.75 13.125 10.7088 13.125 13.125C13.125 15.5412 15.0838 17.5 17.5 17.5Z" fill="#394240"/>
</svg>
