<svg width="126" height="160" viewBox="0 0 146 160" fill="none" xmlns="http://www.w3.org/2000/svg">
<path d="M138.698 0H7.30249V159.999H138.698V0Z" fill="#CCD1D9"/>
<path d="M3.65146 6.66484H142.343C144.364 6.66484 146 5.17564 146 3.33508C146 1.49452 144.364 0 142.343 0H3.65146C1.63577 0 0 1.49421 0 3.33508C0 5.17595 1.63577 6.66484 3.65146 6.66484Z" fill="#E6E9ED"/>
<path d="M142.343 153.335H3.65146C1.63577 153.335 0 154.825 0 156.665C0 158.506 1.63577 160 3.65146 160H142.343C144.364 160 146 158.506 146 156.665C146 154.824 144.363 153.335 142.343 153.335Z" fill="#E6E9ED"/>
<path d="M142.343 46.6648H3.65146C1.63577 46.6648 0 48.159 0 49.9999C0 51.8407 1.63577 53.335 3.65146 53.335H142.343C144.364 53.335 146 51.8407 146 49.9999C146 48.159 144.363 46.6648 142.343 46.6648Z" fill="#E6E9ED"/>
<path d="M142.343 106.665H3.65146C1.63577 106.665 0 108.159 0 110C0 111.841 1.63577 113.335 3.65146 113.335H142.343C144.364 113.335 146 111.841 146 110C146 108.159 144.363 106.665 142.343 106.665Z" fill="#E6E9ED"/>
<path d="M111.696 51.3185C101.351 41.8749 87.6049 36.6699 72.9799 36.6699C58.3569 36.6699 44.6085 41.8749 34.2681 51.3185C23.9254 60.7616 18.2312 73.3155 18.2312 86.6702C18.2312 100.029 23.9254 112.583 34.2681 122.026C44.6085 131.47 58.3569 136.67 72.9799 136.67C87.6052 136.67 101.351 131.47 111.696 122.026C122.037 112.583 127.725 100.029 127.725 86.6702C127.725 73.3155 122.037 60.7616 111.696 51.3185Z" fill="#F6BB42"/>
<path d="M111.697 44.6482C101.351 35.205 87.605 30.0046 72.9796 30.0046C58.3567 30.0046 44.6082 35.205 34.2679 44.6482C23.9252 54.0917 18.231 66.6502 18.231 80.0046C18.231 93.3589 23.9252 105.917 34.2679 115.361C44.6082 124.804 58.3567 130.004 72.9796 130.004C87.605 130.004 101.351 124.804 111.696 115.361C122.037 105.917 127.725 93.3589 127.725 80.0046C127.725 66.6502 122.037 54.0917 111.697 44.6482Z" fill="#FFCE54"/>
<path d="M72.9983 79.8923L52.9648 111.582C58.862 114.688 65.7032 116.465 72.9983 116.465C80.2909 116.465 87.1345 114.687 93.0317 111.582L72.9983 79.8923Z" fill="#434A54"/>
<path d="M73.0894 79.7509H113.151C113.13 66.2158 105.077 54.3994 93.1228 48.0615L73.0894 79.7509Z" fill="#434A54"/>
<path d="M72.9073 79.7509L52.8736 48.0615C40.916 54.3994 32.8672 66.2158 32.8484 79.7509H72.9073Z" fill="#434A54"/>
<path d="M61.2898 79.8925C61.2898 73.9891 66.5318 69.1992 72.9986 69.1992C79.4677 69.1992 84.7074 73.9891 84.7074 79.8925C84.7074 85.8005 79.4677 90.5911 72.9986 90.5911C66.5322 90.5911 61.2898 85.8008 61.2898 79.8925Z" fill="#656D78"/>
</svg>
