<svg width="175" height="175" viewBox="0 0 175 175" fill="none" xmlns="http://www.w3.org/2000/svg">
<path d="M150.643 70.3828C151.778 67.2519 152.352 63.9639 152.352 60.5801C152.352 44.6592 139.398 31.7051 123.477 31.7051C121.864 31.7051 120.258 31.8349 118.685 32.1015C114.809 23.0644 107.228 16.0234 97.8085 12.8857C79.7001 6.8496 60.0536 16.6728 54.0038 34.7949C53.9628 34.9043 53.9286 35.0205 53.8876 35.1299C48.9999 37.167 45.0214 40.667 42.3759 45.0146C31.828 43.0664 20.8222 46.7031 13.5556 54.7764C7.99112 60.956 5.16104 68.9336 5.59854 77.2324C6.0292 85.5312 9.67276 93.167 15.8456 98.7314C17.8349 100.522 20.0087 102.033 22.3397 103.243C20.829 108.787 21.5605 114.755 24.4999 119.841C27.412 124.879 32.1083 128.488 37.7274 129.992C39.6073 130.498 41.5146 130.744 43.4081 130.744C47.1815 130.744 50.9071 129.753 54.2636 127.818C56.8954 126.294 59.1991 124.195 61.0175 121.68H93.6523C95.9149 121.68 97.7538 119.841 97.7538 117.578C97.7538 115.315 95.9149 113.477 93.6523 113.477H58.789C57.3124 113.477 55.9521 114.27 55.2274 115.548C53.997 117.701 52.1991 119.533 50.162 120.716C47.0175 122.527 43.3603 123.006 39.8534 122.069C36.3466 121.133 33.4208 118.884 31.6024 115.739C29.3192 111.781 29.1791 106.978 31.2196 102.881C31.8157 101.685 31.8533 100.276 31.3885 99.292C30.9236 98.3008 29.955 97.5488 28.9296 97.1797C26.1269 96.1816 23.5771 94.6572 21.3417 92.6406C16.789 88.5391 14.1093 82.9199 13.788 76.8017C13.4667 70.6904 15.5517 64.8183 19.6532 60.2656C24.6435 54.7285 32.0263 52.0351 39.2929 52.8623C38.9647 54.4756 38.7802 56.1435 38.7802 57.8457C38.7802 69.8086 47.1952 79.7549 58.5565 81.9971C59.1581 93.6113 68.3524 102.539 79.9804 102.539H110.742C119.061 102.539 125.822 109.3 125.822 117.605V121.68H134.025V117.605C134.025 104.774 123.58 94.3359 110.742 94.3359H79.9804C72.5497 94.3359 66.7255 88.3818 66.7255 80.7803V78.3535C66.7255 76.1455 64.9823 74.334 62.7812 74.2519C53.9218 73.9238 46.9833 66.7187 46.9833 57.8457C46.9833 50.6338 51.6044 44.3379 58.4814 42.1846C59.8417 41.7539 60.8808 40.6533 61.2294 39.2724C61.3798 38.6709 61.5712 38.0283 61.7899 37.3789C66.4042 23.5566 81.3954 16.0644 95.2177 20.6719C103.346 23.3789 109.683 29.8935 112.157 38.1103C112.472 39.1631 113.196 40.0381 114.16 40.5508C115.131 41.0635 116.266 41.1728 117.311 40.8379C119.287 40.2226 121.365 39.9082 123.477 39.9082C134.88 39.9082 144.149 49.1777 144.149 60.5801C144.149 62.4805 143.896 64.3398 143.397 66.1308C140.294 64.9072 136.91 64.2373 133.349 64.2373H129.473C125.685 54.1611 114.844 48.2549 104.118 50.8867C99.456 52.042 95.4159 54.626 92.4355 58.3652C91.0273 60.1357 91.3212 62.7197 93.0917 64.1279C94.8622 65.543 97.4462 65.249 98.8544 63.4785C100.693 61.168 103.195 59.5683 106.087 58.8506C113.251 57.0937 120.533 61.4838 122.267 68.6601C122.897 71.2646 124.542 72.4404 126.506 72.4404H133.349C144.436 72.4404 153.125 81.7578 153.125 93.6523V121.68H161.328V93.6523C161.328 84.082 157.185 75.7217 150.643 70.3828ZM117.608 128.558L169.531 128.516V146.289H161.328V162.695H125.781V146.289H117.578L117.608 128.558Z" fill="black"/>
</svg>
