<svg width="147" height="147" viewBox="0 0 147 147" fill="none" xmlns="http://www.w3.org/2000/svg">
<g clip-path="url(#clip0_73_145)">
<path fill-rule="evenodd" clip-rule="evenodd" d="M67.6501 58.3789L81.8979 58.3311C84.47 58.3191 86.2285 58.7856 87.9153 61.0107L91.9468 68.1885L96.0261 65.6643L89.0039 77.9502L74.78 77.8904L79.1226 75.3662L71.8013 62.9727C71.1074 61.8003 70.605 60.8672 69.6001 59.8862C69.0139 59.312 68.344 58.8096 67.6501 58.3789ZM71.0835 117.966L57.4099 117.99C54.3833 117.523 52.4453 115.885 51.8711 113.6C51.3687 111.626 51.8591 110.717 52.7205 109.018C53.7373 106.996 54.9456 105.046 56.106 103.072L71.239 103.12L71.0835 117.966ZM49.311 112.643L42.1453 100.333C40.8533 98.1077 40.3748 96.3491 41.4514 93.7771L45.6624 86.707L41.4395 84.4341L55.5916 84.3743L62.6497 96.708L58.2952 94.2078L51.2251 106.745C50.5552 107.929 49.9929 108.838 49.658 110.19C49.4546 111.004 49.3469 111.817 49.311 112.643ZM98.6819 80.4504L105.537 92.2698C106.649 95.1169 106.195 97.6172 104.508 99.2561C103.048 100.668 102.02 100.704 100.117 100.811C97.8564 100.943 95.5596 100.871 93.2747 100.847L85.75 87.7119L98.6819 80.4504ZM104.95 101.972L97.8684 114.329C96.5884 116.566 95.3083 117.858 92.5449 118.205L84.3145 118.098L84.458 122.883L77.3401 110.657L84.4939 98.3709L84.5059 103.395L98.8972 103.252C100.261 103.24 101.326 103.264 102.666 102.893C103.467 102.677 104.221 102.354 104.95 101.972ZM52.1582 74.5647L58.9651 62.7095C60.8792 60.3169 63.2717 59.4675 65.5327 60.1016C67.4827 60.6519 68.033 61.5371 69.0737 63.1282C70.3179 65.0303 71.4065 67.052 72.531 69.0378L64.9106 82.1252L52.1582 74.5647ZM12.5969 11.1973H55.0293V6.45996C55.0293 4.67749 55.759 3.0625 56.9194 1.9021C58.1038 0.729736 59.7188 0 61.4893 0H86.061C87.8435 0 89.4465 0.729736 90.6189 1.89014C91.7913 3.0625 92.509 4.67749 92.509 6.448V11.1973H134.403C135.719 11.1973 136.927 11.7356 137.801 12.6208C138.674 13.4941 139.212 14.6904 139.212 16.0183V29.4048V31.4863H137.131H9.86938H7.78784V29.4048V16.0063C7.78784 14.6904 8.32617 13.4822 9.19946 12.6089C10.0728 11.7476 11.281 11.1973 12.5969 11.1973ZM57.1108 15.3604H12.5969C12.4175 15.3604 12.25 15.4321 12.1423 15.5398C12.0227 15.6594 11.9509 15.8269 11.9509 16.0063V27.3113H135.049V16.0063C135.049 15.8269 134.977 15.6594 134.858 15.5398C134.75 15.4321 134.583 15.3604 134.403 15.3604H90.4275H88.3459V13.2788V6.448C88.3459 5.82593 88.0828 5.25171 87.676 4.83301C87.2573 4.41431 86.6951 4.16309 86.061 4.16309H61.4893C60.8552 4.16309 60.281 4.41431 59.8743 4.83301V4.84497C59.4556 5.26367 59.2043 5.83789 59.2043 6.45996V13.2908V15.3723H57.1108V15.3604ZM19.9661 34.4172H127.979C128.111 34.4172 128.302 34.4292 128.541 34.4531C130.025 34.5847 131.412 35.2546 132.429 36.2476C133.494 37.3003 134.176 38.7119 134.176 40.291C134.176 40.3987 134.164 40.5662 134.14 40.7815L125 141.007C124.857 142.646 124.151 144.141 123.062 145.229C121.974 146.318 120.514 146.988 118.839 146.988V146.976H28.9861V146.988C27.3113 146.988 25.8518 146.318 24.7512 145.229C23.6626 144.141 22.9688 142.634 22.8132 140.995L13.8052 40.7695C13.7813 40.5422 13.7813 40.3867 13.7813 40.291C13.7813 38.7119 14.4631 37.3003 15.5278 36.2476C16.5447 35.2546 17.9324 34.5847 19.4277 34.4531C19.667 34.4292 19.8464 34.4172 19.9661 34.4172ZM127.979 38.5803H19.978H19.7866C19.2722 38.6282 18.7937 38.8555 18.4348 39.2024C18.1357 39.5015 17.9443 39.8843 17.9443 40.291C17.9443 40.3987 17.9443 40.3987 17.9443 40.4226L26.9644 140.66C27.0242 141.318 27.2874 141.904 27.6941 142.311C28.0291 142.646 28.4836 142.849 28.998 142.849V142.861H118.851V142.849C119.366 142.849 119.808 142.646 120.143 142.311C120.55 141.904 120.813 141.318 120.873 140.66L130.013 40.4346C130.013 40.4226 130.013 40.4106 130.013 40.3149C130.013 39.9082 129.821 39.5374 129.522 39.2383C129.163 38.8914 128.685 38.6521 128.17 38.6162C128.158 38.5803 128.099 38.5803 127.979 38.5803Z" fill="#207E2B" stroke="#207E2B" stroke-width="1.10592"/>
</g>
<defs>
<clipPath id="clip0_73_145">
<rect width="147" height="147" fill="white"/>
</clipPath>
</defs>
</svg>
